<?xml version="1.0" standalone="no"?>
<!DOCTYPE svg PUBLIC "-//W3C//DTD SVG 20010904//EN"
 "http://www.w3.org/TR/2001/REC-SVG-20010904/DTD/svg10.dtd">
<svg version="1.0" xmlns="http://www.w3.org/2000/svg"
 width="371.000000pt" height="280.000000pt" viewBox="0 0 371.000000 280.000000"
 preserveAspectRatio="xMidYMid meet">

<g transform="translate(0.000000,280.000000) scale(0.100000,-0.100000)"
fill="#000000" stroke="none">
<path d="M1801 2654 c-76 -20 -113 -49 -107 -83 3 -14 8 -49 11 -78 6 -50 6
-52 -23 -67 -16 -8 -32 -21 -34 -28 -7 -17 9 -58 22 -58 5 0 10 -9 10 -20 0
-11 4 -20 10 -20 5 0 14 -9 20 -21 9 -17 7 -31 -9 -70 -31 -71 -42 -178 -28
-274 6 -44 11 -102 11 -130 l1 -50 -505 -1 c-1051 -1 -1088 -2 -1100 -23 -7
-15 -6 -23 4 -33 10 -10 11 -19 4 -32 -7 -13 -6 -22 5 -34 11 -12 13 -22 6
-34 -6 -11 -5 -21 5 -31 9 -8 11 -19 6 -27 -11 -18 6 -50 25 -50 18 0 19 -12
3 -29 -11 -10 -8 -17 13 -35 14 -12 24 -27 21 -34 -6 -19 18 -42 44 -42 21 0
23 -2 13 -19 -18 -28 -4 -51 30 -51 23 0 30 -5 33 -22 2 -19 9 -23 40 -22 28
1 38 -3 41 -17 6 -22 55 -26 88 -9 15 9 21 7 25 -5 7 -17 56 -20 85 -5 15 8
23 7 35 -5 20 -19 27 -19 73 5 39 19 39 19 34 0 -4 -17 0 -20 23 -20 16 0 38
7 48 15 13 10 23 11 31 5 6 -5 42 -8 78 -7 37 2 67 0 67 -5 0 -11 58 -10 65 2
4 6 13 5 25 -3 16 -9 24 -9 39 0 15 10 20 9 25 -2 8 -21 29 -19 60 6 21 17 26
18 26 5 0 -18 45 -22 55 -6 5 8 11 7 21 -1 11 -9 19 -8 35 7 19 17 21 17 30 2
7 -13 17 -16 39 -11 35 7 39 -6 8 -33 -34 -30 -93 -127 -118 -193 l-22 -61
-30 25 c-44 37 -91 34 -134 -9 -85 -85 -2 -209 118 -176 48 14 78 51 134 167
32 67 63 115 102 155 51 53 135 118 153 118 8 0 -10 -58 -84 -259 -47 -131
-54 -181 -24 -181 7 0 18 -9 25 -21 7 -11 19 -18 26 -16 8 3 18 1 22 -3 5 -5
29 -10 54 -12 25 -2 50 -9 56 -17 6 -8 20 -12 31 -9 12 3 27 2 34 -3 7 -4 21
-3 30 2 10 5 20 5 23 1 7 -11 215 -12 222 -1 3 5 10 6 16 3 9 -6 29 1 80 27
10 5 27 9 37 9 11 0 22 4 25 9 3 5 15 7 26 4 12 -3 22 1 26 11 3 9 17 16 30
16 14 0 27 6 30 14 3 8 -11 55 -31 103 -20 48 -47 113 -59 143 -31 74 -64 180
-57 180 11 0 76 -42 119 -78 54 -44 108 -122 155 -224 42 -92 70 -123 125
-138 49 -13 100 4 126 41 20 30 21 92 1 123 -34 51 -115 58 -162 14 -18 -17
-23 -18 -23 -6 0 28 -88 192 -124 232 -38 40 -39 64 -4 45 18 -9 24 -8 35 6
12 18 13 18 33 0 15 -14 23 -15 34 -6 10 8 16 9 21 1 9 -15 45 -12 51 5 5 12
11 11 35 -7 27 -20 30 -21 48 -4 10 9 22 13 25 8 6 -10 115 -13 131 -4 5 3 40
5 77 4 37 0 70 4 74 9 4 6 15 4 31 -6 30 -20 68 -16 67 7 -1 15 2 15 35 -3 43
-23 55 -24 75 -4 12 12 20 13 35 5 29 -15 69 -12 79 6 7 13 13 14 30 5 35 -19
83 -14 89 9 4 15 11 19 24 15 29 -9 59 4 59 26 0 15 7 19 30 19 35 0 49 23 31
51 -10 17 -8 19 13 19 28 0 51 24 42 45 -3 9 3 19 15 26 16 8 20 17 16 39 -5
22 -2 29 15 33 16 5 19 11 15 33 -3 17 1 33 9 42 10 9 11 19 5 30 -7 12 -5 22
6 34 11 12 12 21 5 34 -7 13 -6 22 4 32 10 10 11 18 4 33 -10 18 -25 19 -298
21 -158 1 -518 0 -799 -1 -583 -4 -535 -12 -512 86 13 53 16 57 46 60 24 3 38
-2 53 -19 74 -87 98 -107 133 -113 54 -10 114 13 151 58 25 32 30 47 30 92 0
39 -5 62 -20 82 -55 73 -124 90 -207 49 -30 -14 -59 -26 -64 -26 -6 0 -16 -7
-23 -15 -14 -17 -80 -21 -80 -5 0 12 67 44 125 59 22 6 63 25 90 43 43 29 50
38 53 70 4 50 -23 66 -70 42 -22 -11 -33 -13 -36 -5 -9 28 -73 3 -124 -51 -15
-15 -34 -28 -42 -28 -18 0 -43 77 -53 158 -5 44 -3 55 13 66 17 13 17 15 0 41
-10 15 -19 47 -21 71 -2 24 -13 57 -24 73 -12 16 -21 39 -21 51 0 21 -56 81
-75 79 -5 0 -34 -7 -64 -15z m86 -47 c-3 -7 -32 -21 -64 -30 -33 -9 -68 -23
-79 -31 -10 -8 19 -1 66 15 47 16 86 29 87 29 1 0 3 10 5 23 4 21 5 21 18 -6
18 -37 5 -49 -80 -71 -36 -10 -76 -25 -89 -33 -13 -8 -20 -10 -17 -4 4 6 3 11
-2 11 -5 0 -9 6 -10 13 -1 6 -4 24 -8 39 -5 24 -1 29 35 47 59 31 113 41 130
25 7 -7 11 -19 8 -27z m53 -66 c0 -5 -25 -15 -55 -21 -29 -6 -75 -22 -102 -35
-26 -13 -48 -23 -50 -21 -10 10 46 41 109 61 83 26 98 29 98 16z m-17 -44 c22
14 47 13 47 -1 0 -9 -9 -13 -25 -11 -14 1 -28 -2 -31 -6 -8 -14 -34 -10 -34 5
0 16 23 28 28 14 2 -4 9 -5 15 -1z m-119 -35 c3 -5 -5 -8 -17 -8 -13 1 -21 -4
-19 -12 1 -8 -2 -11 -8 -7 -8 5 -7 11 1 21 13 15 35 19 43 6z m91 -13 c-15 -6
-9 -8 20 -4 46 6 56 1 73 -38 14 -33 16 -59 2 -37 -7 12 -13 13 -27 4 -26 -16
-81 -5 -98 19 -28 41 -16 64 35 65 9 0 7 -3 -5 -9z m-144 -26 c12 -16 12 -17
-2 -6 -19 16 -33 5 -18 -14 8 -9 8 -13 1 -13 -15 0 -25 18 -18 35 7 20 21 19
37 -2z m35 -18 c-9 -9 -16 -13 -16 -8 0 12 22 34 28 28 2 -2 -3 -11 -12 -20z
m-86 5 c0 -5 -7 -10 -16 -10 -11 0 -15 -6 -11 -20 3 -11 1 -18 -4 -14 -15 9
-10 32 9 43 22 13 22 13 22 1z m150 -35 c4 3 11 -2 14 -11 3 -8 2 -13 -3 -9
-5 3 -12 -1 -14 -7 -3 -8 -6 -6 -6 5 -1 9 -5 17 -10 17 -11 0 -21 37 -13 45 4
3 10 -5 15 -19 5 -15 12 -24 17 -21z m-140 5 c0 -5 -7 -7 -15 -4 -8 4 -15 8
-15 10 0 2 7 4 15 4 8 0 15 -4 15 -10z m262 -37 c-10 -4 -10 -8 -1 -19 7 -8 9
-18 5 -21 -8 -8 -26 16 -26 35 0 6 8 12 18 11 11 0 12 -2 4 -6z m-268 -19 c3
-8 2 -12 -4 -9 -6 3 -10 10 -10 16 0 14 7 11 14 -7z m61 -3 c3 -6 -4 -15 -15
-21 -19 -10 -20 -10 -8 9 15 24 15 24 23 12z m45 -11 c-13 -8 -12 -10 2 -10
22 0 85 -74 110 -130 11 -25 25 -53 29 -62 6 -12 5 -18 -1 -18 -6 0 -22 26
-36 57 -42 94 -60 113 -102 112 -28 -1 -31 -3 -12 -6 39 -7 51 -22 92 -110 21
-46 40 -83 43 -83 3 0 21 6 40 14 l34 15 7 -35 c23 -122 -23 -297 -114 -435
l-47 -71 -6 64 c-7 80 -19 117 -86 259 -62 134 -78 206 -61 283 12 58 34 106
48 106 6 0 10 5 10 10 0 14 52 62 59 55 3 -4 -1 -10 -9 -15z m390 -109 c0 -5
-7 -12 -16 -15 -9 -4 -14 -9 -11 -12 3 -3 23 4 46 15 28 15 50 19 68 15 26 -7
26 -7 -18 -30 -24 -13 -40 -23 -36 -24 4 0 21 7 37 15 17 9 30 12 30 7 0 -5
-15 -16 -32 -26 -30 -15 -21 -15 19 1 11 4 14 3 9 -6 -11 -17 -122 -71 -146
-71 -11 0 -38 -9 -60 -20 -41 -21 -44 -20 -54 22 -5 23 -2 30 23 43 17 8 37
25 45 37 9 12 31 30 49 40 37 20 47 22 47 9z m165 -171 c59 -37 80 -111 49
-176 -44 -92 -181 -99 -234 -11 -24 38 -25 47 -5 47 8 0 21 -13 29 -28 17 -32
54 -52 97 -52 22 0 41 10 66 35 32 32 35 40 30 76 -10 74 -80 117 -146 89 -16
-6 -38 -10 -48 -8 -14 3 -11 8 17 26 44 28 102 28 145 2z m-205 -40 c0 -5 -10
-18 -22 -30 -12 -11 -16 -20 -10 -20 7 0 12 -7 12 -15 0 -11 -12 -15 -45 -15
-43 0 -45 1 -45 30 0 28 2 30 39 30 22 0 44 6 51 15 14 17 20 19 20 5z m191
-19 c37 -38 38 -79 3 -115 -32 -32 -81 -35 -115 -7 -24 19 -24 20 -6 49 9 17
17 43 17 59 0 37 6 43 42 43 19 0 40 -10 59 -29z m-116 9 c3 -5 -2 -10 -12
-11 -16 0 -16 -1 2 -9 16 -7 13 -9 -17 -9 -21 -1 -38 4 -38 9 0 6 5 10 11 10
5 0 7 5 4 10 -3 6 5 10 19 10 14 0 28 -4 31 -10z m-11 -50 c-7 -7 -19 -7 -35
-1 -23 9 -22 10 11 10 23 1 31 -2 24 -9z m5 -26 c2 -2 -10 -4 -27 -4 -18 0
-32 5 -32 10 0 9 47 4 59 -6z m-450 -121 c38 -98 53 -160 49 -204 -3 -28 -6
-22 -16 35 -7 38 -26 108 -43 154 -31 90 -31 92 -25 92 2 0 18 -35 35 -77z
m-29 -19 c3 2 6 -8 7 -22 0 -15 4 -67 7 -117 5 -89 5 -89 -5 -21 -5 38 -16 98
-24 133 -18 76 -18 101 -1 55 6 -18 14 -31 16 -28z m47 -175 c4 -49 2 -83 -6
-97 -20 -37 -29 -24 -16 23 10 42 7 126 -9 210 -3 17 1 10 10 -15 8 -25 18
-79 21 -121z m-1354 131 c-5 -19 -14 -20 -174 -20 -140 0 -169 2 -169 14 0 19
31 22 207 24 137 2 141 1 136 -18z m213 -5 c-1 -25 -2 -25 -86 -25 -91 0 -117
8 -107 34 5 13 23 16 101 16 94 0 94 0 92 -25z m274 6 c0 -16 -11 -19 -82 -24
-151 -12 -188 -6 -175 27 5 13 26 16 132 16 115 0 125 -1 125 -19z m78 -3 c-2
-13 -10 -23 -18 -23 -8 0 -16 10 -18 23 -3 17 2 22 18 22 16 0 21 -5 18 -22z
m82 8 c0 -22 -24 -38 -38 -24 -20 20 -14 38 13 38 15 0 25 -6 25 -14z m68 -8
c-2 -13 -10 -23 -18 -23 -8 0 -16 10 -18 23 -3 17 2 22 18 22 16 0 21 -5 18
-22z m82 8 c0 -7 -6 -19 -14 -25 -12 -10 -17 -8 -25 7 -6 11 -7 22 -4 26 12
11 43 6 43 -8z m68 -8 c-2 -13 -10 -23 -18 -23 -8 0 -16 10 -18 23 -3 17 2 22
18 22 16 0 21 -5 18 -22z m79 6 c1 -5 -2 -16 -7 -24 -9 -13 -12 -12 -25 4 -8
10 -12 22 -10 27 7 10 38 5 42 -7z m985 -5 c-2 -8 -8 -18 -13 -23 -13 -14 -33
9 -26 28 7 18 43 13 39 -5z m76 -1 c-2 -13 -10 -23 -18 -23 -8 0 -16 10 -18
23 -3 17 2 22 18 22 16 0 21 -5 18 -22z m76 13 c3 -4 -1 -17 -9 -27 -13 -16
-16 -17 -25 -4 -5 8 -10 21 -10 28 0 13 36 17 44 3z m74 -13 c-2 -13 -10 -23
-18 -23 -8 0 -16 10 -18 23 -3 17 2 22 18 22 16 0 21 -5 18 -22z m82 14 c0 -5
-7 -17 -15 -28 -13 -16 -16 -17 -25 -4 -17 25 -11 40 15 40 14 0 25 -4 25 -8z
m68 -14 c-2 -13 -10 -23 -18 -23 -8 0 -16 10 -18 23 -3 17 2 22 18 22 16 0 21
-5 18 -22z m300 0 c5 -25 -30 -31 -149 -23 -98 6 -109 9 -109 26 0 18 7 19
127 17 110 -3 128 -5 131 -20z m209 6 c10 -26 -16 -34 -108 -34 -86 0 -86 0
-86 25 0 25 0 25 94 25 77 0 95 -3 100 -16z m317 10 c29 -4 46 -12 46 -20 0
-11 -33 -14 -169 -14 -160 0 -169 1 -174 20 -5 19 0 20 123 20 70 0 148 -3
174 -6z m-2614 -30 c0 -8 7 -17 15 -20 8 -4 15 -13 15 -20 0 -20 -30 -30 -41
-13 -12 20 -11 82 1 74 6 -3 10 -13 10 -21z m498 9 c-2 -10 -10 -18 -18 -18
-8 0 -16 8 -18 18 -2 12 3 17 18 17 15 0 20 -5 18 -17z m70 0 c-2 -10 -10 -18
-18 -18 -8 0 -16 8 -18 18 -2 12 3 17 18 17 15 0 20 -5 18 -17z m82 13 c0 -13
-13 -36 -21 -36 -4 0 -13 9 -19 20 -9 18 -8 20 15 20 14 0 25 -2 25 -4z m60 0
c0 -2 -7 -6 -15 -10 -8 -3 -15 -1 -15 4 0 6 7 10 15 10 8 0 15 -2 15 -4z m410
-6 c0 -13 -11 -13 -30 0 -12 8 -11 10 8 10 12 0 22 -4 22 -10z m70 -11 c-13
-23 -33 -21 -38 4 -3 12 4 17 23 17 23 0 25 -2 15 -21z m78 4 c-5 -25 -25 -27
-38 -4 -10 19 -8 21 15 21 19 0 26 -5 23 -17z m70 0 c-5 -25 -25 -27 -38 -4
-10 19 -8 21 15 21 19 0 26 -5 23 -17z m478 -39 c-4 -20 -13 -34 -22 -34 -19
0 -32 32 -15 38 7 2 17 16 23 31 13 34 22 12 14 -35z m-1723 -15 c-6 -21 -28
-26 -38 -8 -4 5 -4 22 0 36 6 24 7 24 24 9 11 -10 17 -25 14 -37z m73 -4 c-8
-21 -33 -18 -39 4 -2 10 0 26 5 35 9 16 11 16 25 -4 8 -11 12 -27 9 -35z m78
2 c-7 -19 -29 -23 -39 -6 -4 5 -4 22 0 36 6 26 6 26 26 6 12 -12 17 -26 13
-36z m70 -1 c-3 -9 -12 -16 -19 -16 -19 0 -26 28 -13 50 12 18 12 18 25 0 7
-10 10 -25 7 -34z m76 13 c0 -10 -5 -21 -11 -25 -18 -11 -32 13 -25 41 6 22 9
25 21 15 8 -7 15 -21 15 -31z m76 -14 c-7 -20 -32 -19 -40 0 -3 9 0 24 6 35
12 18 12 18 26 -1 8 -11 11 -26 8 -34z m148 2 c-7 -19 -29 -23 -39 -6 -4 5 -4
22 0 36 6 26 6 26 26 6 12 -12 17 -26 13 -36z m41 23 c-10 -11 -20 -18 -22
-16 -6 5 30 44 36 39 2 -1 -4 -12 -14 -23z m515 -22 c0 -6 -9 -3 -20 7 -11 10
-20 24 -20 32 0 9 6 7 20 -7 11 -11 20 -25 20 -32z m55 3 c-7 -22 -29 -28 -41
-10 -3 6 0 22 7 35 11 21 15 23 27 10 9 -8 11 -22 7 -35z m149 -5 c-7 -18 -30
-21 -40 -5 -3 6 -1 22 6 35 13 23 14 23 27 5 7 -11 10 -26 7 -35z m76 13 c0
-10 -5 -21 -11 -25 -18 -11 -32 13 -25 41 6 22 9 25 21 15 8 -7 15 -21 15 -31z
m70 -14 c-7 -8 -16 -15 -20 -15 -15 0 -20 31 -8 50 12 18 12 18 26 -1 11 -16
11 -23 2 -34z m77 1 c-4 -9 -13 -16 -21 -16 -23 0 -28 31 -9 52 17 19 18 19
27 -1 5 -11 6 -27 3 -35z m75 2 c-5 -20 -27 -24 -38 -7 -3 6 -1 22 6 35 12 21
14 22 25 7 7 -9 10 -25 7 -35z m75 -2 c-4 -9 -13 -16 -21 -16 -23 0 -28 31 -9
52 17 19 18 19 27 -1 5 -11 6 -27 3 -35z m-1207 3 c0 -23 -28 -25 -36 -4 -4 8
-3 22 0 31 5 13 9 14 21 4 8 -7 15 -21 15 -31z m466 -42 c-16 -56 -54 -107
-81 -107 -20 0 -19 4 9 48 13 20 36 62 52 92 33 65 44 48 20 -33z m292 47 c-5
-26 -38 -31 -38 -7 0 24 21 46 33 34 5 -5 7 -17 5 -27z m-552 -174 c-9 -83
-16 -167 -16 -187 0 -23 -4 -33 -9 -27 -6 5 -3 77 9 194 11 102 20 194 21 205
1 13 3 11 6 -7 2 -15 -3 -95 -11 -178z m-1248 173 c-15 -14 -42 -16 -180 -17
-101 -1 -164 3 -166 9 -4 14 70 22 228 23 125 2 133 1 118 -15z m205 -14 c-12
-12 -165 -24 -189 -15 -38 14 8 31 99 36 88 5 110 -1 90 -21z m267 17 c0 -20
-214 -53 -235 -36 -11 9 -12 16 -4 26 12 15 50 20 162 22 59 2 77 -1 77 -12z
m724 -39 c-45 -53 -64 -105 -64 -177 0 -155 110 -264 265 -264 60 0 79 4 125
30 150 85 185 264 80 407 -39 53 -39 69 0 32 52 -50 84 -129 84 -204 0 -111
-53 -200 -154 -259 -40 -24 -55 -27 -135 -27 -80 0 -95 3 -135 27 -170 100
-206 308 -79 452 40 46 53 30 13 -17z m374 -146 c10 -106 15 -194 11 -197 -4
-2 -10 15 -12 38 l-4 43 -1 -48 c-1 -27 -8 -54 -15 -61 -31 -31 -84 -49 -146
-50 l-63 -1 -1 100 c0 61 -2 75 -4 35 -4 -94 -13 -134 -24 -123 -8 8 4 222 13
228 2 1 19 13 38 28 26 19 39 23 52 16 10 -5 26 -6 40 0 26 10 68 62 68 85 0
8 5 18 10 21 6 3 10 25 10 47 0 88 12 22 28 -161z m940 192 c54 -6 75 -24 54
-45 -16 -16 -232 20 -232 38 0 16 83 19 178 7z m280 -16 c24 -16 0 -27 -56
-26 -82 0 -136 12 -140 29 -2 13 12 14 90 10 51 -3 99 -9 106 -13z m365 4 c20
-20 -21 -24 -180 -19 -129 5 -158 8 -171 23 -16 16 -8 17 161 12 108 -3 183
-9 190 -16z m-2445 -58 c-5 -25 -25 -27 -38 -4 -8 15 -7 26 2 40 12 20 12 20
26 0 7 -11 12 -27 10 -36z m148 2 c-8 -21 -34 -19 -38 3 -2 9 0 25 6 34 9 15
11 15 24 -3 8 -11 11 -26 8 -34z m74 3 c0 -11 -7 -18 -20 -18 -21 0 -26 22
-14 54 6 15 8 15 20 -1 7 -10 14 -26 14 -35z m80 6 c0 -6 -6 -17 -14 -23 -22
-18 -41 21 -24 48 11 18 13 18 25 3 7 -9 13 -22 13 -28z m821 -7 c-4 -10 -10
-18 -14 -18 -4 1 -11 1 -17 1 -14 0 -13 26 2 49 11 18 13 18 24 3 6 -9 9 -25
5 -35z m148 1 c-5 -10 -14 -18 -19 -18 -17 0 -22 22 -10 46 12 22 14 22 26 6
8 -11 9 -22 3 -34z m151 -8 c-6 -11 -15 -20 -21 -20 -17 0 -22 31 -9 56 13 23
14 23 27 4 10 -15 11 -25 3 -40z m-1503 31 c9 -15 9 -23 -2 -37 -19 -26 -40
-5 -31 30 8 31 17 33 33 7z m149 -7 c8 -30 -5 -47 -25 -35 -9 6 -11 18 -7 35
8 33 24 33 32 0z m304 -15 c0 -22 -12 -30 -29 -19 -9 5 -11 17 -7 35 6 22 9
25 21 15 8 -7 15 -21 15 -31z m669 -15 c-12 -14 -14 -14 -26 2 -11 15 -10 21
4 37 17 18 18 18 27 -2 6 -14 5 -26 -5 -37z m159 28 c4 -26 -26 -42 -38 -22
-9 15 10 52 25 47 5 -2 11 -13 13 -25z m152 -7 c0 -7 -7 -18 -15 -25 -12 -10
-16 -8 -24 11 -11 31 5 55 25 38 8 -6 14 -17 14 -24z m146 11 c7 -28 -1 -46
-21 -46 -18 0 -24 30 -11 53 15 24 25 21 32 -7z m-1721 4 c11 -17 -175 -85
-206 -75 -27 9 -24 34 7 45 19 8 118 28 186 39 4 1 10 -3 13 -9z m70 -21 c0
-30 -30 -38 -38 -10 -5 21 11 43 28 38 5 -2 10 -14 10 -28z m1724 18 c8 -10 7
-18 -3 -32 -15 -21 -36 -13 -36 14 0 31 20 40 39 18z m175 -13 c74 -15 94 -30
71 -53 -12 -12 -23 -11 -77 7 -97 32 -139 52 -133 62 6 10 18 8 139 -16z
m-2454 6 c8 -5 12 -11 9 -14 -7 -7 -252 -36 -306 -36 -45 0 -61 11 -39 29 23
20 310 38 336 21z m219 -3 c8 -11 -5 -18 -68 -36 -81 -24 -122 -25 -129 -4 -6
21 54 39 174 52 6 0 16 -5 23 -12z m1479 -12 c-3 -3 -9 2 -12 12 -6 14 -5 15
5 6 7 -7 10 -15 7 -18z m999 10 c56 -7 90 -26 79 -43 -4 -7 -19 -12 -33 -12
-25 0 -163 37 -173 47 -10 9 26 23 50 19 14 -3 48 -8 77 -11z m300 4 c122 -10
159 -21 147 -40 -3 -5 -24 -9 -47 -9 -54 0 -299 29 -306 36 -9 9 22 24 51 24
15 0 85 -5 155 -11z m-1793 -139 c-17 -172 -18 -173 -38 -126 -32 72 -17 195
31 248 9 10 17 17 18 16 1 -2 -4 -64 -11 -138z m-700 115 c7 -18 -109 -85
-147 -85 -52 0 -28 28 56 63 45 20 83 36 83 36 1 1 4 -6 8 -14z m1115 -40 c14
-30 21 -65 21 -104 0 -54 -15 -120 -25 -110 -2 2 -8 51 -15 109 -6 58 -13 118
-16 134 -8 40 9 26 35 -29z m185 15 c8 0 24 -15 35 -34 21 -34 28 -66 13 -66
-23 0 -83 93 -81 127 0 14 2 13 9 -4 5 -13 16 -23 24 -23z m653 -31 c40 -34
-18 -39 -80 -8 -67 35 -86 50 -81 64 4 10 21 7 76 -16 39 -16 77 -34 85 -40z
m-1877 46 c0 -8 -27 -32 -59 -55 -58 -39 -91 -50 -91 -30 0 15 86 70 110 70
11 0 23 7 26 15 8 19 14 19 14 0z m123 -72 c-40 -46 -73 -67 -73 -46 0 3 21
34 47 68 41 54 49 60 59 47 10 -13 4 -26 -33 -69z m107 75 c0 -16 -69 -108
-92 -122 -24 -14 -33 -1 -16 23 25 35 93 110 101 110 4 1 7 -5 7 -11z m150 -6
c0 -27 -57 -112 -76 -112 -16 0 -7 19 50 113 14 22 26 22 26 -1z m46 -45 c-29
-51 -51 -71 -66 -62 -15 9 30 85 58 96 12 5 22 14 23 21 0 10 2 10 6 0 2 -7
-7 -32 -21 -55z m902 -27 c18 -32 20 -40 8 -40 -21 0 -86 98 -79 118 5 12 10
10 27 -11 12 -15 31 -45 44 -67z m162 13 c43 -53 48 -66 24 -61 -21 4 -104
102 -104 124 0 21 35 -6 80 -63z m94 -55 c-10 -16 -23 -7 -69 47 -39 45 -44
56 -34 68 11 12 21 4 60 -47 26 -33 45 -64 43 -68z m97 102 c23 0 109 -56 109
-70 0 -21 -39 -8 -93 31 -32 22 -57 48 -57 57 1 16 1 16 11 0 5 -10 19 -18 30
-18z m-2015 3 c-2 -12 -29 -29 -82 -50 -86 -35 -124 -41 -124 -20 0 15 39 35
130 66 70 25 79 25 76 4z m347 -43 c-56 -55 -83 -72 -83 -52 0 19 113 108 140
111 3 0 -23 -26 -57 -59z m2043 36 c96 -33 124 -47 124 -63 0 -21 -38 -15
-125 20 -52 21 -81 38 -83 50 -4 22 1 22 84 -7z m-2633 0 c7 -18 0 -20 -123
-40 -145 -24 -204 -25 -208 -4 -4 20 2 22 158 41 156 19 167 19 173 3z m851 2
c-26 -46 -78 -108 -90 -108 -18 0 -5 27 39 83 28 34 68 54 51 25z m50 4 c6
-10 -47 -93 -68 -104 -29 -16 -25 9 10 60 33 50 47 61 58 44z m866 -43 c23
-45 25 -59 7 -59 -12 0 -67 86 -67 103 0 3 9 3 20 0 12 -3 30 -23 40 -44z
m180 7 c33 -49 40 -83 14 -68 -20 11 -74 94 -68 104 10 16 24 7 54 -36z m54
-5 c36 -49 44 -71 27 -71 -10 0 -42 40 -76 93 -15 23 -15 27 -2 27 8 0 31 -22
51 -49z m976 29 c137 -14 150 -17 150 -36 0 -25 -22 -26 -168 -4 -163 24 -173
26 -165 47 4 11 15 14 42 10 20 -3 83 -11 141 -17z m-2313 -10 c-43 -62 -97
-107 -97 -81 0 15 81 101 96 101 13 0 13 -3 1 -20z m413 15 c0 -33 -53 -105
-67 -91 -11 11 35 96 52 96 8 0 15 -2 15 -5z m1108 -44 c44 -53 49 -61 31 -61
-12 0 -75 64 -90 93 -20 36 17 16 59 -32z m56 8 c45 -40 57 -59 35 -59 -13 0
-109 80 -109 92 0 19 30 6 74 -33z m-979 -202 c-7 -60 -13 -85 -20 -78 -7 7
-7 43 1 113 7 57 14 123 15 148 2 37 3 33 8 -25 4 -38 2 -110 -4 -158z m-955
197 c0 -9 -31 -30 -84 -55 -102 -48 -141 -57 -149 -36 -8 22 18 41 103 76 85
34 130 39 130 15z m2307 -15 c87 -34 114 -54 106 -76 -8 -21 -47 -12 -149 36
-53 25 -84 46 -84 55 0 24 40 20 127 -15z m-2594 -2 c-4 -22 -16 -25 -155 -51
-133 -24 -153 -26 -166 -13 -13 13 -12 17 9 27 21 12 248 57 295 59 17 1 20
-4 17 -22z m2907 -1 c153 -28 170 -33 170 -51 0 -27 -23 -27 -170 1 -138 25
-149 29 -153 51 -5 28 -12 28 153 -1z m-2655 -71 c-99 -54 -140 -67 -133 -42
7 21 160 96 198 96 32 1 26 -4 -65 -54z m162 29 c-15 -13 -143 -96 -167 -109
-32 -16 -60 -14 -60 4 0 6 43 37 97 70 80 49 99 57 114 48 10 -6 17 -12 16
-13z m2078 -50 c73 -44 88 -65 52 -72 -9 -2 -60 25 -112 59 -84 55 -93 64 -77
75 14 10 21 10 39 -2 12 -8 56 -35 98 -60z m59 33 c77 -41 105 -67 72 -67 -17
0 -95 37 -176 84 l-45 26 35 0 c22 -1 66 -17 114 -43z m-2056 7 c5 -2 -179
-124 -188 -124 -5 0 -12 4 -15 10 -7 11 7 24 100 88 54 38 73 46 85 38 8 -6
16 -11 18 -12z m1859 -21 c85 -58 114 -84 107 -94 -9 -16 -21 -10 -113 52 -75
50 -89 63 -78 74 6 8 13 14 14 15 1 0 33 -21 70 -47z m-2313 22 c-6 -14 -44
-27 -191 -64 -98 -25 -143 -27 -143 -6 0 8 12 18 28 22 119 30 262 62 284 62
20 1 26 -3 22 -14z m2844 -16 c132 -30 162 -41 162 -60 0 -21 -99 -4 -277 47
-53 15 -80 44 -42 44 11 0 82 -14 157 -31z m-2338 11 c12 -8 10 -14 -14 -39
-16 -17 -47 -43 -68 -57 -31 -22 -41 -25 -51 -15 -9 10 1 24 48 67 65 59 63
58 85 44z m193 -50 c-38 -60 -59 -78 -74 -63 -14 14 48 111 73 116 13 2 26 5
31 6 4 0 -10 -26 -30 -59z m185 13 c-26 -61 -36 -73 -60 -73 -22 0 -19 18 13
83 15 27 26 37 44 37 l24 0 -21 -47z m56 -15 c-23 -46 -47 -68 -60 -55 -4 3 5
30 19 61 21 45 29 54 46 49 20 -5 20 -6 -5 -55z m833 6 c14 -30 23 -58 19 -61
-13 -13 -37 9 -60 56 -23 45 -24 50 -8 54 9 3 18 5 20 6 2 0 15 -24 29 -55z
m68 4 c16 -35 21 -56 14 -63 -16 -16 -42 8 -66 63 l-23 52 26 0 c20 0 29 -9
49 -52z m185 -12 c29 -49 28 -72 -1 -61 -8 3 -31 31 -50 63 l-37 58 30 -4 c23
-3 35 -16 58 -56z m224 11 c37 -33 57 -58 52 -65 -13 -22 -32 -13 -92 43 -49
45 -56 56 -44 65 21 14 19 15 84 -43z m-1671 19 c-66 -80 -103 -106 -103 -73
0 27 68 95 95 95 25 0 25 -1 8 -22z m77 18 c0 -13 -62 -95 -80 -104 -43 -23
-29 26 28 93 14 16 52 24 52 11z m95 -44 c-24 -47 -48 -70 -61 -57 -3 3 2 17
10 31 9 14 23 37 31 51 9 14 22 25 30 25 12 0 10 -10 -10 -50z m60 1 c-26 -53
-39 -66 -55 -56 -17 10 37 105 60 105 20 0 19 -2 -5 -49z m185 35 c0 -20 -28
-84 -41 -91 -22 -14 -22 7 1 55 23 49 40 64 40 36z m719 -37 c23 -52 21 -74
-3 -48 -19 18 -46 86 -38 93 12 13 20 4 41 -45z m179 12 c12 -21 22 -46 22
-56 0 -30 -24 -10 -53 43 -26 48 -27 52 -9 52 11 0 27 -15 40 -39z m62 -12
c17 -28 29 -53 26 -56 -13 -13 -37 10 -61 57 -35 69 -8 68 35 -1z m135 1 c60
-82 22 -94 -41 -12 -39 51 -42 62 -15 62 12 0 34 -20 56 -50z m69 8 c39 -45
45 -68 21 -68 -16 0 -52 34 -85 80 -18 25 -18 26 5 28 17 1 34 -11 59 -40z
m-925 -50 c-4 -40 -8 -85 -8 -100 -1 -16 -6 -28 -12 -28 -10 0 -9 31 7 158 9
73 20 46 13 -30z m-1225 53 c8 -12 -259 -115 -280 -107 -32 12 5 34 131 75
130 43 141 45 149 32z m2797 -32 c68 -22 130 -45 136 -51 15 -13 8 -28 -14
-28 -27 0 -273 103 -267 112 8 12 12 11 145 -33z m-2747 6 c4 -12 -24 -30
-116 -76 -118 -58 -157 -68 -165 -42 -5 14 42 39 172 94 104 44 101 44 109 24z
m2710 -46 c106 -47 130 -64 120 -81 -10 -16 -40 -7 -129 35 -144 69 -155 76
-148 92 7 19 17 16 157 -46z m-1094 20 c0 -10 -4 -19 -10 -19 -5 0 -10 12 -10
26 0 14 4 23 10 19 6 -3 10 -15 10 -26z m-667 1 c3 -12 0 -20 -8 -20 -8 0 -11
8 -8 20 3 11 7 20 8 20 1 0 5 -9 8 -20z m-879 -5 c10 -27 -237 -156 -259 -134
-6 6 -4 15 6 24 14 14 227 125 240 125 4 0 9 -7 13 -15z m2539 -41 c121 -60
147 -78 132 -93 -21 -21 -262 102 -262 133 0 9 4 16 9 16 5 0 60 -25 121 -56z
m-2251 -11 c-56 -67 -89 -96 -102 -91 -17 5 49 90 82 105 14 7 31 20 38 28 7
9 15 13 18 11 2 -3 -14 -27 -36 -53z m1855 17 c14 0 83 -82 83 -99 0 -19 -20
-12 -47 17 -73 78 -126 156 -70 104 13 -12 28 -22 34 -22z m-1912 0 c0 -18
-121 -120 -142 -120 -12 0 7 24 52 70 66 67 90 80 90 50z m2040 -50 c76 -77
69 -96 -12 -31 -63 50 -87 77 -78 90 11 18 18 13 90 -59z m-2232 35 c-91 -68
-138 -95 -167 -95 -30 0 -30 0 -11 19 32 32 153 96 180 96 l25 0 -27 -20z m76
-17 c-50 -43 -120 -88 -136 -88 -31 0 -8 33 53 78 51 37 73 47 92 44 l26 -5
-35 -29z m261 32 c0 -3 -22 -29 -48 -59 -32 -36 -53 -52 -66 -50 -16 3 -12 12
26 59 29 36 53 56 67 56 11 0 21 -3 21 -6z m123 2 c15 -7 13 -13 -19 -60 -36
-55 -59 -71 -74 -56 -9 9 58 125 70 123 3 0 13 -4 23 -7z m64 -44 c-29 -53
-65 -91 -77 -83 -15 9 -13 16 25 77 28 44 40 55 55 51 20 -5 20 -6 -3 -45z
m143 33 c-1 -15 -56 -105 -67 -109 -19 -5 -16 11 11 73 19 41 29 53 40 49 9
-3 16 -9 16 -13z m54 -15 c-21 -73 -62 -117 -57 -63 3 43 32 97 48 91 11 -4
14 -13 9 -28z m66 27 c0 -21 -45 -113 -56 -113 -18 0 -18 2 3 66 12 40 21 52
35 51 10 -1 18 -2 18 -4z m49 -33 c-11 -29 -45 -67 -54 -58 -3 2 2 25 11 50
12 36 19 45 34 41 15 -4 17 -9 9 -33z m716 -38 c6 -22 5 -23 -15 -12 -12 6
-28 26 -35 43 -12 28 -11 33 3 38 17 7 29 -11 47 -69z m41 43 c24 -58 28 -85
11 -85 -12 0 -57 86 -57 110 0 20 34 2 46 -25z m63 -16 c24 -55 22 -91 -4 -69
-19 16 -49 96 -40 109 12 20 23 11 44 -40z m71 -16 c39 -88 7 -83 -41 5 -20
37 -21 45 -9 52 18 11 20 9 50 -57z m147 -10 c25 -43 24 -67 -2 -57 -8 4 -31
31 -50 62 -31 51 -33 57 -18 63 20 8 31 -3 70 -68z m61 27 c17 -27 32 -57 32
-65 0 -22 -24 -18 -46 8 -24 27 -64 84 -64 91 0 4 18 10 40 15 3 0 20 -22 38
-49z m144 -5 c21 -26 38 -51 38 -56 0 -24 -33 -3 -79 50 -50 58 -51 60 -25 57
19 -2 40 -18 66 -51z m303 -29 c23 -19 27 -27 19 -36 -15 -15 -36 -4 -122 61
-61 46 -62 48 -35 51 27 3 65 -17 138 -76z m54 33 c80 -47 98 -69 58 -69 -22
0 -98 45 -165 98 l-24 18 29 -2 c16 -1 62 -21 102 -45z m-2036 29 c-46 -64
-87 -108 -99 -108 -22 0 -17 19 22 71 26 36 42 49 61 49 19 0 23 -3 16 -12z
m189 -40 c-50 -92 -90 -95 -49 -4 22 47 30 56 51 56 l26 0 -28 -52z m1198 6
c23 -54 25 -74 6 -74 -7 0 -28 27 -45 60 l-32 60 26 0 c21 0 29 -8 45 -46z
m224 -3 c39 -52 44 -71 22 -71 -14 0 -78 68 -97 103 -8 14 -6 17 15 17 18 0
34 -13 60 -49z m-528 1 c-10 -10 -29 15 -21 28 6 9 10 8 17 -4 6 -10 7 -20 4
-24z m-620 1 c-10 -10 -19 5 -10 18 6 11 8 11 12 0 2 -7 1 -15 -2 -18z m689
-73 c87 -60 156 -159 210 -303 l18 -48 18 31 c49 79 159 54 159 -37 0 -73 -79
-108 -149 -67 -33 19 -42 33 -96 144 -57 114 -119 188 -212 250 -95 63 -88 57
-74 74 11 13 17 13 49 -1 20 -8 55 -28 77 -43z m-646 36 c10 -11 1 -21 -47
-50 -97 -58 -180 -156 -241 -280 -39 -80 -61 -112 -84 -127 -103 -62 -210 39
-128 122 45 45 95 36 131 -24 17 -28 20 -29 26 -11 67 191 147 298 269 362 48
25 59 26 74 8z m511 -80 c23 -55 28 -80 15 -85 -12 -4 -43 57 -52 100 -9 45
15 36 37 -15z m-460 29 c0 -23 -45 -115 -56 -115 -19 0 -18 13 7 71 12 27 28
49 35 49 8 0 14 -2 14 -5z m39 -28 c19 -23 -17 -117 -44 -117 -19 0 -19 11 2
77 17 56 24 61 42 40z m384 -40 c20 -63 22 -90 6 -85 -14 5 -48 85 -48 116 -1
42 25 22 42 -31z m-37 -66 c5 -33 4 -41 -9 -41 -18 0 -23 12 -32 73 -9 59 4
83 22 40 7 -18 15 -50 19 -72z m-300 48 c-8 -47 -22 -79 -36 -79 -13 0 -13 34
2 81 16 55 43 53 34 -2z m47 -17 c-9 -59 -22 -87 -34 -75 -16 16 8 124 26 117
9 -4 12 -16 8 -42z m190 31 c13 -47 17 -112 7 -118 -14 -9 -30 38 -30 91 0 44
14 60 23 27z m-139 -51 c-2 -60 -10 -86 -24 -77 -11 7 -14 94 -4 120 13 33 29
7 28 -43z m56 -12 c0 -58 -14 -85 -31 -59 -12 19 -11 86 2 110 17 32 29 11 29
-51z m45 15 c6 -53 2 -75 -14 -75 -9 0 -23 109 -15 122 13 20 22 4 29 -47z
m-345 -77 c-11 -29 -20 -54 -20 -55 0 -2 -7 -3 -15 -3 -19 0 -19 28 0 74 10
24 22 36 35 36 20 0 20 0 0 -52z m578 7 c23 -48 27 -65 14 -65 -9 0 -52 84
-52 100 0 23 18 7 38 -35z m-525 18 c7 -12 -33 -113 -45 -113 -12 0 -6 49 11
93 10 26 25 35 34 20z m490 -40 c20 -55 21 -73 6 -73 -14 0 -52 88 -45 106 10
25 22 15 39 -33z m-453 -35 c-29 -81 -54 -51 -28 34 10 35 13 37 27 23 14 -13
14 -20 1 -57z m412 -10 c11 -39 7 -55 -10 -44 -15 9 -43 97 -35 109 8 14 31
-19 45 -65z m-360 17 c-4 -46 -19 -78 -33 -70 -12 8 -11 31 2 78 13 49 35 43
31 -8z m304 4 c15 -42 17 -89 4 -89 -15 0 -30 35 -37 86 -5 37 -3 46 7 42 8
-2 19 -20 26 -39z m-252 -16 c-8 -60 -22 -89 -36 -75 -15 15 9 122 28 122 12
0 14 -9 8 -47z m197 16 c12 -43 10 -101 -3 -97 -14 5 -25 44 -27 96 -1 39 19
40 30 1z m-57 5 c21 -20 22 -114 2 -114 -19 0 -26 22 -26 81 0 54 1 56 24 33z
m-94 -43 c0 -48 -13 -72 -30 -55 -14 14 1 104 16 104 10 0 14 -14 14 -49z m48
-8 c-4 -81 -28 -85 -28 -4 0 48 3 61 15 61 13 0 15 -11 13 -57z m-332 -6 c8
-21 -35 -127 -52 -127 -18 0 -18 5 7 78 20 61 34 76 45 49z m684 -53 c43 -95
22 -118 -24 -26 -35 71 -40 92 -21 92 10 0 27 -24 45 -66z m-655 -23 c-16 -50
-54 -108 -55 -84 0 6 12 44 26 83 17 46 30 68 36 62 7 -7 4 -28 -7 -61z m60
49 c10 -17 -36 -150 -52 -150 -10 0 -14 6 -10 18 38 135 47 156 62 132z m547
-57 c42 -108 15 -113 -33 -7 -34 75 -34 74 -11 74 13 0 25 -19 44 -67z m-518
-34 c-10 -40 -25 -75 -33 -77 -16 -5 -11 30 15 118 11 38 19 49 26 42 8 -8 6
-32 -8 -83z m465 25 c24 -63 27 -87 9 -82 -7 3 -23 31 -35 64 -26 71 -27 74
-9 74 7 0 23 -25 35 -56z m-397 16 c-9 -77 -25 -130 -38 -130 -17 0 -17 14 -2
97 9 49 15 63 27 61 11 -2 15 -12 13 -28z m305 -36 c7 -32 12 -67 13 -76 0
-26 -29 -22 -35 5 -14 58 -23 122 -18 130 12 20 28 -4 40 -59z m47 -5 c12 -40
14 -65 8 -71 -13 -13 -25 10 -41 75 -11 47 -8 72 8 62 5 -2 16 -32 25 -66z
m-310 4 c-9 -73 -22 -109 -34 -97 -12 12 8 136 24 146 18 12 18 11 10 -49z
m210 0 c9 -65 7 -103 -4 -103 -13 0 -30 66 -30 117 0 58 25 48 34 -14z m-158
-24 c-7 -77 -12 -93 -27 -84 -22 14 -5 155 19 155 12 0 14 -11 8 -71z m52 -11
c-2 -40 -7 -73 -13 -73 -5 0 -11 33 -13 73 -2 60 0 72 13 72 13 0 15 -12 13
-72z m56 5 c7 -69 -5 -104 -24 -73 -16 25 -13 140 4 140 9 0 15 -20 20 -67z"/>
<path d="M1910 2593 c0 -5 -10 -15 -22 -21 -13 -6 -18 -11 -12 -11 16 -1 50
27 41 35 -4 4 -7 3 -7 -3z"/>
<path d="M1838 2553 c7 -3 16 -2 19 1 4 3 -2 6 -13 5 -11 0 -14 -3 -6 -6z"/>
<path d="M1754 2524 c-18 -14 -18 -14 6 -3 31 14 36 19 24 19 -6 0 -19 -7 -30
-16z"/>
<path d="M1917 2433 c-26 -7 -10 -23 24 -23 20 0 29 4 27 13 -5 13 -24 17 -51
10z"/>
<path d="M2240 2185 c-14 -8 -20 -14 -15 -14 6 0 21 6 35 14 14 8 21 14 15 14
-5 0 -21 -6 -35 -14z"/>
<path d="M2003 1530 c0 -30 2 -43 4 -27 2 15 2 39 0 55 -2 15 -4 2 -4 -28z"/>
<path d="M1983 1470 c0 -30 2 -43 4 -27 2 15 2 39 0 55 -2 15 -4 2 -4 -28z"/>
<path d="M2013 1420 c0 -30 2 -43 4 -27 2 15 2 39 0 55 -2 15 -4 2 -4 -28z"/>
<path d="M1993 1345 c0 -38 2 -53 4 -32 2 20 2 52 0 70 -2 17 -4 1 -4 -38z"/>
<path d="M2524 896 c-29 -20 -34 -47 -18 -84 24 -58 107 -51 128 11 21 58 -58
109 -110 73z m74 -12 c33 -23 26 -94 -11 -94 -5 0 -1 7 7 16 43 42 -10 109
-54 69 -28 -25 -25 -49 8 -74 19 -15 22 -19 7 -15 -47 15 -60 72 -23 98 12 9
27 16 33 16 6 0 21 -7 33 -16z m-3 -44 c0 -20 -6 -26 -26 -28 -17 -2 -29 3
-32 12 -11 28 4 47 32 44 20 -2 26 -8 26 -28z"/>
<path d="M1112 894 c-47 -33 -16 -124 43 -124 30 0 75 41 75 68 0 11 -9 31
-21 46 -24 30 -63 34 -97 10z m76 -10 c33 -23 26 -94 -11 -94 -5 0 -1 7 7 16
43 42 -10 109 -54 69 -28 -25 -25 -49 8 -74 19 -15 22 -19 7 -15 -46 15 -58
61 -25 94 24 24 38 25 68 4z m-3 -44 c0 -20 -6 -26 -26 -28 -17 -2 -29 3 -32
12 -11 28 4 47 32 44 20 -2 26 -8 26 -28z"/>
<path d="M1183 95 c0 -27 2 -38 4 -22 2 15 8 27 13 27 5 0 11 -12 13 -27 4
-26 4 -26 6 5 1 22 -4 32 -13 32 -8 0 -17 8 -19 18 -3 9 -5 -5 -4 -33z"/>
<path d="M1682 95 c0 -27 2 -43 5 -35 3 8 13 24 22 35 15 18 15 19 -1 7 -14
-12 -17 -10 -21 15 -2 16 -4 6 -5 -22z"/>
<path d="M1300 120 c-4 -25 1 -54 10 -63 4 -5 5 3 3 17 -4 19 -1 26 11 26 9 0
16 -8 16 -19 0 -11 4 -22 9 -25 5 -4 7 3 4 15 -3 12 -1 24 4 28 7 4 6 11 -3
19 -8 7 -14 8 -14 2 0 -14 -27 -13 -33 3 -4 8 -6 8 -7 -3z"/>
<path d="M1528 117 c-7 -19 6 -60 20 -63 7 -1 8 0 2 3 -12 6 -13 40 -1 45 5 2
3 8 -4 15 -10 9 -14 9 -17 0z"/>
<path d="M2065 120 c-4 -6 1 -7 11 -3 13 5 16 3 11 -10 -3 -9 -2 -19 4 -22 14
-9 -1 -27 -18 -21 -8 3 -11 1 -8 -4 8 -14 32 -13 37 2 13 39 -18 88 -37 58z"/>
<path d="M2127 123 c-3 -5 -4 -21 -3 -38 1 -23 6 -30 21 -30 11 0 20 6 19 13
-1 6 -2 23 -2 37 -2 23 -25 35 -35 18z m23 -13 c0 -5 -4 -10 -10 -10 -5 0 -10
5 -10 10 0 6 5 10 10 10 6 0 10 -4 10 -10z m2 -35 c0 -5 -5 -11 -11 -13 -6 -2
-11 4 -11 13 0 9 5 15 11 13 6 -2 11 -8 11 -13z"/>
<path d="M2200 125 c-1 -5 -1 -21 0 -34 1 -13 -4 -28 -12 -32 -9 -6 -3 -9 17
-9 17 0 25 4 18 8 -6 4 -13 23 -16 42 -2 19 -5 31 -7 25z"/>
<path d="M2247 123 c-2 -5 -4 -21 -5 -36 -2 -30 22 -47 41 -28 15 15 44 14 50
-1 4 -10 6 -10 6 0 1 6 12 12 26 12 14 0 25 -6 25 -12 0 -10 2 -10 8 0 5 7 6
27 4 44 l-5 32 -23 -27 c-29 -34 -34 -34 -34 1 l-1 27 -24 -27 c-30 -34 -35
-35 -35 -3 0 23 -23 36 -33 18z m23 -13 c0 -5 -4 -10 -10 -10 -5 0 -10 5 -10
10 0 6 5 10 10 10 6 0 10 -4 10 -10z m56 -27 c-10 -10 -19 5 -10 18 6 11 8 11
12 0 2 -7 1 -15 -2 -18z m60 0 c-10 -10 -19 5 -10 18 6 11 8 11 12 0 2 -7 1
-15 -2 -18z m-114 -8 c0 -5 -5 -11 -11 -13 -6 -2 -11 4 -11 13 0 9 5 15 11 13
6 -2 11 -8 11 -13z"/>
<path d="M2437 123 c22 -4 22 -6 8 -33 -22 -42 -17 -51 5 -10 25 46 25 50 -7
49 -24 -2 -25 -2 -6 -6z"/>
<path d="M2490 106 c-15 -29 -8 -56 15 -56 23 0 31 31 12 45 -12 9 -14 14 -5
23 7 7 8 12 2 12 -6 0 -16 -11 -24 -24z m22 -31 c0 -5 -5 -11 -11 -13 -6 -2
-11 4 -11 13 0 9 5 15 11 13 6 -2 11 -8 11 -13z"/>
<path d="M2545 120 c-3 -5 0 -7 8 -4 24 9 28 -12 7 -31 -27 -25 -25 -35 8 -34
21 0 23 2 9 7 -15 7 -16 10 -3 27 7 10 12 25 9 32 -6 15 -29 17 -38 3z"/>
<path d="M1130 93 c0 -10 4 -14 8 -8 4 6 11 13 16 18 5 4 2 7 -7 7 -10 0 -17
-8 -17 -17z"/>
<path d="M1241 83 c-1 -27 3 -33 19 -33 16 0 20 6 19 33 -2 30 -2 30 -6 5 -6
-36 -20 -36 -26 0 -4 25 -4 25 -6 -5z"/>
<path d="M1387 104 c-13 -13 -7 -24 14 -24 11 0 19 5 17 12 -5 14 -22 21 -31
12z"/>
<path d="M1441 78 c2 -28 2 -29 6 -8 3 14 10 28 17 32 7 5 5 8 -6 8 -14 0 -18
-8 -17 -32z"/>
<path d="M1480 93 c0 -10 4 -14 8 -8 4 6 11 13 16 18 5 4 2 7 -7 7 -10 0 -17
-8 -17 -17z"/>
<path d="M1574 95 c-8 -21 2 -45 20 -45 19 0 29 29 15 46 -15 18 -28 18 -35
-1z m31 -15 c0 -7 -6 -15 -12 -17 -8 -3 -13 4 -13 17 0 13 5 20 13 18 6 -3 12
-11 12 -18z"/>
<path d="M1634 95 c-8 -20 2 -45 18 -44 10 0 10 2 1 6 -7 2 -13 13 -13 23 0
10 6 21 13 23 9 4 9 6 -1 6 -7 1 -15 -6 -18 -14z"/>
<path d="M1774 95 c-8 -20 2 -45 18 -44 10 0 10 2 1 6 -7 2 -13 13 -13 23 0
10 6 21 13 23 9 4 9 6 -1 6 -7 1 -15 -6 -18 -14z"/>
<path d="M1824 95 c-8 -21 2 -45 20 -45 7 0 16 7 20 15 8 21 -3 45 -20 45 -8
0 -17 -7 -20 -15z m31 -15 c0 -7 -6 -15 -12 -17 -8 -3 -13 4 -13 17 0 13 5 20
13 18 6 -3 12 -11 12 -18z"/>
<path d="M1881 77 c2 -31 2 -31 6 -4 2 15 8 27 13 27 5 0 11 -12 13 -27 l4
-28 2 28 c0 15 5 27 10 27 5 0 12 -12 14 -27 4 -27 4 -27 6 4 1 29 -1 31 -34
31 -33 0 -35 -2 -34 -31z"/>
<path d="M1142 65 c-11 -12 -10 -15 3 -15 8 0 15 7 15 15 0 18 -2 18 -18 0z"/>
<path d="M1492 65 c-11 -12 -10 -15 3 -15 8 0 15 7 15 15 0 18 -2 18 -18 0z"/>
<path d="M1700 71 c0 -5 5 -13 10 -16 6 -3 10 -2 10 4 0 5 -4 13 -10 16 -5 3
-10 2 -10 -4z"/>
<path d="M1388 58 c5 -5 16 -8 23 -6 8 3 3 7 -10 11 -17 4 -21 3 -13 -5z"/>
</g>
</svg>
